# xmcd
#
# Track frame offsets:
#	150
#	16298
#	38510
#	52385
#	73449
#	89890
#	107760
#	125431
#	145819
#	164273
#	180398
#	199219
#	218321
#	237511
#	258317
#	280665
#
# Disc length: 4014 seconds
# Revision: 0
# Processed by: cddbd v1.5.2PL0 Copyright (c) Steve Scherf et al.
# Submitted via: dBpowerAMP V12.0
#
DISCID=ed0fac10
DTITLE=Tim McGraw - The Ultimate Collection, Disc 2
DYEAR=2016
DGENRE=Country
TTITLE0=For A Little While
TTITLE1=Please, Remember Me
TTITLE2=Something Like That
TTITLE3=My Best Friend
TTITLE4=My Next Thirty Years
TTITLE5=Somethings Never Change
TTITLE6=Grown Men Don't Cry
TTITLE7=Angry All The Time
TTITLE8=The Cowboy In Me
TTITLE9=Unbroken (Single Edit)
TTITLE10=Red Ragtop (Single Edit)
TTITLE11=She's My Kind Of Rain
TTITLE12=Real Good Man
TTITLE13=Watch The Wind Blow By
TTITLE14=Live Like You Were Dying
TTITLE15=Back When
EXTD=
EXTT0=
EXTT1=
EXTT2=
EXTT3=
EXTT4=
EXTT5=
EXTT6=
EXTT7=
EXTT8=
EXTT9=
EXTT10=
EXTT11=
EXTT12=
EXTT13=
EXTT14=
EXTT15=
PLAYORDER=
